<?xml version="1.0" standalone="no"?>
<!DOCTYPE svg PUBLIC "-//W3C//DTD SVG 20010904//EN"
 "http://www.w3.org/TR/2001/REC-SVG-20010904/DTD/svg10.dtd">
<svg version="1.0" xmlns="http://www.w3.org/2000/svg"
 width="166.000000pt" height="518.000000pt" viewBox="0 0 166.000000 518.000000"
 preserveAspectRatio="xMidYMid meet">

<g transform="translate(0.000000,518.000000) scale(0.100000,-0.100000)"
fill="#000000" stroke="none">
<path d="M224 4988 c-12 -5 -27 -21 -33 -34 -8 -18 -11 -207 -11 -632 0 -683
1 -688 71 -832 59 -120 161 -221 280 -279 47 -22 93 -41 102 -41 9 0 18 -4 21
-8 2 -4 -31 -581 -75 -1282 -44 -701 -78 -1315 -77 -1365 6 -149 60 -240 176
-297 59 -30 76 -33 152 -33 76 0 93 3 152 33 114 56 169 147 176 292 2 47 -31
644 -72 1326 -42 683 -76 1261 -76 1284 0 34 4 43 20 47 45 12 158 73 212 114
70 53 129 130 174 224 62 130 64 145 64 817 0 424 -3 614 -11 631 -28 61 -130
61 -158 0 -8 -17 -11 -205 -11 -621 0 -650 -1 -661 -57 -764 -32 -58 -143
-167 -200 -197 -131 -66 -295 -66 -426 0 -57 30 -168 139 -200 197 -56 103
-57 114 -57 764 0 416 -3 604 -11 621 -19 42 -78 58 -125 35z m685 -3241 c41
-681 71 -1239 67 -1260 -16 -84 -107 -142 -185 -118 -49 14 -98 68 -107 118
-7 39 136 2483 146 2483 3 0 39 -550 79 -1223z"/>
<path d="M624 4988 c-12 -5 -27 -21 -33 -34 -15 -35 -16 -1173 0 -1207 12 -26
47 -47 79 -47 32 0 67 21 79 47 8 17 11 200 11 603 0 403 -3 586 -11 603 -19
42 -78 58 -125 35z"/>
<path d="M944 4988 c-12 -5 -27 -21 -33 -34 -15 -35 -16 -1173 0 -1207 12 -26
47 -47 79 -47 32 0 67 21 79 47 8 17 11 200 11 603 0 403 -3 586 -11 603 -19
42 -78 58 -125 35z"/>
</g>
</svg>
