<?xml version="1.0" standalone="no"?>
<!DOCTYPE svg PUBLIC "-//W3C//DTD SVG 20010904//EN"
 "http://www.w3.org/TR/2001/REC-SVG-20010904/DTD/svg10.dtd">
<svg version="1.0" xmlns="http://www.w3.org/2000/svg"
 width="166.000000pt" height="518.000000pt" viewBox="0 0 166.000000 518.000000"
 preserveAspectRatio="xMidYMid meet">

<g transform="translate(0.000000,518.000000) scale(0.100000,-0.100000)"
fill="#000000" stroke="none">
<path d="M711 4985 c-143 -31 -274 -116 -345 -224 -61 -92 -81 -148 -110 -308
-72 -394 -96 -812 -56 -968 50 -196 193 -346 383 -400 51 -15 57 -19 57 -43 0
-15 -32 -571 -71 -1237 -39 -665 -69 -1248 -67 -1295 7 -145 62 -236 176 -292
59 -30 76 -33 152 -33 76 0 93 3 152 33 114 56 169 147 176 292 2 47 -28 623
-68 1280 -39 657 -70 1213 -68 1234 3 38 5 40 55 57 136 46 251 132 312 233
63 104 83 177 88 316 11 273 -57 858 -118 1012 -53 134 -149 236 -280 298
-121 56 -244 71 -368 45z m257 -197 c75 -28 181 -129 215 -205 53 -118 117
-616 117 -910 0 -158 -51 -268 -166 -355 -54 -41 -152 -78 -205 -78 -34 0 -84
-23 -93 -42 -5 -11 -7 -11 -12 0 -9 19 -59 42 -92 42 -58 0 -156 39 -214 84
-111 88 -158 192 -158 349 0 298 64 789 117 909 31 69 130 169 199 199 93 42
192 44 292 7z m-59 -3005 c42 -705 71 -1275 67 -1296 -16 -84 -106 -142 -185
-118 -49 14 -98 68 -107 117 -7 38 137 2554 146 2554 3 0 38 -566 79 -1257z"/>
</g>
</svg>
