<?xml version="1.0" standalone="no"?>
<!DOCTYPE svg PUBLIC "-//W3C//DTD SVG 20010904//EN"
 "http://www.w3.org/TR/2001/REC-SVG-20010904/DTD/svg10.dtd">
<svg version="1.0" xmlns="http://www.w3.org/2000/svg"
 width="393.000000pt" height="657.000000pt" viewBox="0 0 393.000000 657.000000"
 preserveAspectRatio="xMidYMid meet">

<g transform="translate(0.000000,657.000000) scale(0.100000,-0.100000)"
fill="#000000" stroke="none">
<path d="M2904 6255 c-12 -8 -26 -27 -32 -42 -14 -34 -272 -1392 -272 -1429 0
-40 59 -94 103 -94 38 0 91 36 101 68 13 41 266 1392 266 1419 0 20 -10 42
-29 62 -24 26 -37 31 -73 31 -24 0 -53 -7 -64 -15z"/>
<path d="M340 4669 c-14 -6 -37 -22 -52 -36 -40 -38 -40 -108 0 -145 15 -15
40 -32 55 -37 38 -15 3177 -15 3226 -1 19 5 47 22 63 37 23 22 28 35 28 73 0
37 -5 51 -27 72 -16 15 -41 32 -56 37 -38 15 -3201 14 -3237 0z"/>
<path d="M460 4327 c-35 -27 -50 -62 -50 -117 0 -30 65 -854 145 -1830 l146
-1775 35 -71 c40 -83 121 -166 205 -208 l53 -26 965 0 966 0 53 25 c108 50
219 184 236 285 15 84 297 3551 294 3609 -4 57 -8 67 -36 92 -53 48 -124 35
-164 -29 -19 -31 -31 -163 -169 -1835 -96 -1166 -153 -1811 -161 -1826 -7 -13
-41 -46 -76 -73 l-63 -48 -878 0 -878 0 -39 29 c-21 16 -56 46 -76 67 l-37 39
-149 1800 c-161 1944 -151 1859 -213 1890 -34 18 -88 19 -109 2z"/>
<path d="M2541 4305 c-35 -30 -42 -49 -76 -222 -24 -123 -25 -134 -10 -162 17
-34 61 -61 100 -61 15 0 40 13 60 33 33 30 37 40 65 182 17 83 28 162 24 177
-3 15 -19 39 -36 53 -39 33 -87 33 -127 0z"/>
<path d="M825 3815 c-22 -21 -25 -33 -25 -93 0 -59 3 -72 23 -90 l23 -22 1115
0 1116 0 21 23 c18 19 22 35 22 91 0 58 -3 70 -25 91 l-24 25 -1111 0 -1111 0
-24 -25z"/>
<path d="M1927 1546 c-76 -28 -117 -91 -117 -180 0 -66 12 -101 48 -140 66
-70 191 -74 266 -8 55 49 72 163 35 240 -39 81 -144 121 -232 88z"/>
<path d="M1086 1495 c-79 -28 -126 -98 -126 -187 0 -136 142 -228 259 -168 67
34 111 106 111 180 -1 69 -75 159 -147 179 -47 13 -49 13 -97 -4z"/>
<path d="M2685 1485 c-46 -23 -92 -81 -104 -131 -21 -84 25 -181 106 -223 31
-16 119 -14 152 3 42 22 89 80 101 125 22 83 -22 181 -100 222 -42 23 -114 24
-155 4z"/>
<path d="M1539 1220 c-66 -35 -109 -107 -109 -180 1 -38 33 -101 71 -137 67
-63 163 -64 233 -3 45 40 66 87 66 150 0 59 -15 92 -62 137 -59 56 -132 68
-199 33z"/>
<path d="M2284 1199 c-43 -12 -99 -70 -119 -123 -55 -142 93 -298 232 -245 34
13 90 64 109 102 18 34 20 111 4 152 -16 42 -58 84 -105 106 -43 20 -73 22
-121 8z"/>
<path d="M1885 932 c-76 -37 -115 -96 -115 -178 0 -61 19 -102 68 -146 73 -66
169 -61 243 13 44 44 64 104 55 163 -20 120 -149 196 -251 148z"/>
<path d="M2655 936 c-38 -17 -90 -72 -104 -109 -28 -74 2 -175 67 -225 31 -24
45 -27 107 -27 62 0 76 3 107 27 65 50 95 151 67 225 -14 38 -67 92 -106 109
-40 17 -99 17 -138 0z"/>
<path d="M1165 924 c-83 -46 -123 -129 -103 -216 20 -89 90 -148 176 -148 63
0 98 16 140 64 105 119 30 304 -126 313 -39 2 -66 -2 -87 -13z"/>
</g>
</svg>
