<?xml version="1.0" standalone="no"?>
<!DOCTYPE svg PUBLIC "-//W3C//DTD SVG 20010904//EN"
 "http://www.w3.org/TR/2001/REC-SVG-20010904/DTD/svg10.dtd">
<svg version="1.0" xmlns="http://www.w3.org/2000/svg"
 width="512.000000pt" height="512.000000pt" viewBox="0 0 512.000000 512.000000"
 preserveAspectRatio="xMidYMid meet">

<g transform="translate(0.000000,512.000000) scale(0.100000,-0.100000)"
fill="#000000" stroke="none">
<path d="M2365 5108 c-407 -46 -808 -255 -1076 -561 -487 -558 -564 -1339
-195 -1981 29 -50 333 -593 675 -1206 395 -706 635 -1127 656 -1147 65 -62
175 -64 243 -5 29 26 1267 2184 1403 2447 293 564 236 1259 -144 1774 -359
486 -959 747 -1562 679z m343 -1083 c216 -51 396 -230 452 -451 96 -375 -174
-745 -563 -771 -297 -19 -581 195 -642 483 -49 232 31 464 212 615 58 49 174
107 245 125 73 17 220 17 296 -1z"/>
</g>
</svg>
