<?xml version="1.0" standalone="no"?>
<!DOCTYPE svg PUBLIC "-//W3C//DTD SVG 20010904//EN"
 "http://www.w3.org/TR/2001/REC-SVG-20010904/DTD/svg10.dtd">
<svg version="1.0" xmlns="http://www.w3.org/2000/svg"
 width="288.000000pt" height="67.000000pt" viewBox="0 0 288.000000 67.000000"
 preserveAspectRatio="xMidYMid meet">

<g transform="translate(0.000000,67.000000) scale(0.100000,-0.100000)"
fill="#000000" stroke="none">
<path d="M1151 636 c-47 -26 -50 -45 -51 -304 0 -264 4 -287 55 -310 19 -9
142 -12 446 -12 353 0 425 2 449 15 59 30 60 36 60 305 0 269 -1 275 -60 305
-40 21 -861 22 -899 1z m129 -191 l0 -66 31 16 c40 21 84 11 107 -23 13 -20
17 -48 17 -122 l0 -95 -32 -3 -33 -3 0 85 c0 64 -4 88 -16 100 -19 20 -24 20
-52 0 -20 -14 -22 -24 -22 -100 l0 -84 -35 0 -35 0 0 180 0 180 35 0 35 0 0
-65z m570 0 l0 -65 35 17 c45 22 81 10 112 -36 51 -76 18 -196 -60 -215 -32
-8 -42 -6 -67 13 -25 18 -30 19 -30 6 0 -12 -8 -15 -27 -13 l-28 3 -3 165 c-1
90 0 170 2 177 3 7 19 13 36 13 l30 0 0 -65z m-288 -130 c5 -104 21 -129 62
-102 23 16 25 24 28 99 l3 83 33 3 32 3 0 -125 0 -126 -30 0 c-21 0 -30 5 -30
16 0 13 -5 12 -26 -5 -31 -25 -55 -26 -93 -6 -38 19 -41 30 -41 146 l0 99 29
0 28 0 5 -85z"/>
<path d="M1869 329 c-31 -31 -23 -98 14 -119 27 -14 29 -14 48 9 25 31 25 85
-1 111 -25 25 -35 25 -61 -1z"/>
<path d="M2454 625 c-16 -24 -16 -28 1 -66 16 -34 16 -42 5 -49 -9 -6 -15 -37
-18 -99 l-4 -91 -39 0 c-41 0 -53 14 -19 23 18 5 20 14 20 76 l0 71 -100 0
-100 0 0 -70 0 -71 31 -6 c35 -7 53 -40 43 -79 -4 -14 -2 -24 4 -24 11 0 9
-60 -4 -113 -5 -20 0 -37 17 -62 43 -63 123 -56 164 15 l20 35 65 -6 c52 -4
57 -6 25 -9 l-40 -3 45 -7 c34 -6 48 -4 56 6 6 8 22 14 36 14 18 0 26 -7 33
-33 14 -46 70 -75 112 -58 42 17 67 63 58 109 -9 46 -19 59 -55 67 -24 5 -33
16 -49 60 -11 30 -26 63 -33 74 -9 15 -9 23 1 35 11 13 11 20 -3 41 -16 24
-53 31 -67 12 -6 -8 -45 8 -59 24 -3 3 -20 11 -38 19 -19 7 -38 24 -43 38 -8
21 -5 30 16 52 30 32 32 53 5 80 -28 28 -66 26 -86 -5z m123 -218 c27 -12 58
-31 70 -42 21 -20 43 -106 43 -171 0 -27 -3 -31 -20 -27 -12 3 -19 7 -17 10 3
2 -10 45 -28 96 l-32 92 -42 3 c-41 3 -48 12 -35 46 8 20 3 20 61 -7z m-243
-73 c9 -3 16 -17 16 -30 0 -20 -5 -24 -29 -24 -21 0 -30 6 -34 22 -10 35 8 47
47 32z m235 -70 c11 -31 21 -71 21 -90 0 -31 -3 -34 -28 -34 -56 0 -92 84 -58
135 9 14 14 30 11 35 -3 6 2 10 13 10 14 0 25 -15 41 -56z m-165 -136 c26 -42
-35 -75 -69 -38 -18 19 -18 21 0 40 22 24 53 23 69 -2z m401 2 c4 -7 -2 -9
-19 -4 -34 8 -45 -19 -20 -48 19 -21 19 -21 -3 -10 -29 16 -34 33 -15 55 17
19 47 23 57 7z m1 -48 c-17 -16 -18 -16 -5 5 7 12 15 20 18 17 3 -2 -3 -12
-13 -22z"/>
<path d="M2344 125 c-16 -41 27 -60 50 -22 8 14 8 20 -4 27 -22 14 -40 12 -46
-5z"/>
<path d="M80 490 c-11 -11 -20 -29 -20 -39 0 -30 -11 -51 -26 -51 -8 0 -14
-10 -14 -25 0 -15 6 -25 15 -25 11 0 15 -20 17 -97 l3 -98 33 -3 32 -3 0 100
0 101 25 0 c20 0 25 5 25 25 0 20 -5 25 -26 25 -22 0 -25 4 -22 28 2 21 9 28
31 30 21 3 27 9 27 28 0 21 -4 24 -40 24 -27 0 -47 -7 -60 -20z"/>
<path d="M937 504 c-4 -4 -7 -33 -7 -65 l0 -58 -32 13 c-74 30 -129 -21 -130
-117 -1 -51 19 -108 43 -123 23 -14 89 -7 109 11 18 16 20 16 20 2 0 -12 9
-17 30 -17 l30 0 -2 178 -3 177 -25 3 c-14 2 -29 0 -33 -4z m-25 -171 c12 -10
18 -30 18 -56 0 -68 -52 -102 -84 -55 -31 43 -10 128 31 128 9 0 25 -7 35 -17z"/>
<path d="M2600 475 c0 -14 5 -25 10 -25 6 0 10 5 10 11 0 6 7 9 15 5 23 -8 18
0 -10 18 -24 16 -25 16 -25 -9z"/>
<path d="M282 400 c-18 -4 -41 -15 -52 -25 -43 -39 -51 -137 -16 -190 23 -35
86 -50 139 -33 50 16 78 52 84 110 11 99 -58 160 -155 138z m78 -69 c15 -30
12 -92 -7 -113 -22 -24 -69 -24 -83 1 -15 30 -12 97 6 115 22 23 71 20 84 -3z"/>
<path d="M563 399 c-17 -5 -43 -23 -57 -40 -22 -25 -26 -41 -26 -91 0 -52 4
-63 28 -87 55 -56 158 -46 196 18 36 62 20 163 -31 189 -31 16 -77 21 -110 11z
m78 -66 c8 -9 14 -35 14 -58 0 -23 -6 -49 -14 -58 -17 -21 -64 -22 -81 -2 -16
20 -16 101 0 120 17 20 64 19 81 -2z"/>
</g>
</svg>
