<?xml version="1.0" standalone="no"?>
<!DOCTYPE svg PUBLIC "-//W3C//DTD SVG 20010904//EN"
 "http://www.w3.org/TR/2001/REC-SVG-20010904/DTD/svg10.dtd">
<svg version="1.0" xmlns="http://www.w3.org/2000/svg"
 width="505.000000pt" height="500.000000pt" viewBox="0 0 505.000000 500.000000"
 preserveAspectRatio="xMidYMid meet">

<g transform="translate(0.000000,500.000000) scale(0.100000,-0.100000)"
fill="#000000" stroke="none">
<path d="M1220 4993 c-14 -2 -81 -18 -150 -34 -280 -69 -464 -173 -655 -370
-198 -204 -302 -411 -364 -719 -38 -189 -43 -312 -48 -1195 -7 -1160 6 -1428
83 -1699 128 -447 476 -795 921 -920 205 -58 157 -56 1528 -56 1373 0 1304 -3
1515 56 130 37 272 101 377 170 115 75 300 260 377 377 112 169 197 414 228
657 19 152 19 2329 0 2475 -34 256 -119 506 -224 656 -24 34 -53 76 -64 93
-40 58 -211 218 -304 281 -103 72 -234 132 -377 175 -209 62 -153 60 -1547 59
-699 -1 -1282 -4 -1296 -6z m2270 -453 c299 -16 448 -48 609 -130 149 -75 266
-194 346 -353 126 -249 139 -421 132 -1717 -6 -1024 -8 -1050 -83 -1283 -14
-42 -29 -75 -32 -73 -4 2 -8 -8 -9 -22 0 -14 -7 -31 -15 -36 -7 -6 -14 -18
-16 -26 -7 -31 -59 -98 -138 -176 -62 -61 -102 -91 -170 -126 -180 -93 -321
-123 -649 -138 -292 -13 -1655 -13 -1904 1 -410 22 -619 95 -801 278 -180 181
-247 387 -270 821 -15 277 -8 1885 9 2059 24 254 95 449 216 594 177 214 420
307 850 326 242 12 1726 12 1925 1z"/>
<path d="M2553 4330 c-22 -11 -51 -35 -62 -53 -20 -33 -21 -40 -23 -1263 -4
-1403 5 -1281 -94 -1380 -70 -69 -128 -88 -258 -82 -136 6 -213 52 -268 162
-69 136 -20 315 111 405 60 40 149 71 206 71 59 0 100 17 114 46 16 35 14 734
-2 788 -17 54 -60 76 -152 76 -133 0 -331 -35 -431 -76 -179 -73 -356 -187
-466 -301 -159 -164 -279 -397 -324 -628 -39 -198 -15 -483 55 -650 78 -187
175 -336 298 -456 206 -202 454 -322 738 -356 111 -14 151 -15 275 -4 80 6
170 18 200 26 122 31 176 48 212 66 20 10 42 19 49 19 13 0 173 97 214 130 54
44 173 168 213 223 51 69 143 251 176 350 14 42 35 127 46 188 18 103 20 155
20 615 0 300 4 505 9 509 5 3 40 -6 78 -21 138 -53 280 -88 439 -109 131 -17
173 -11 223 31 59 49 62 74 59 439 l-3 330 -29 38 c-38 50 -63 61 -170 82
-374 69 -526 221 -607 604 -23 109 -43 150 -86 178 -25 16 -59 18 -373 20
-326 3 -347 2 -387 -17z m533 -360 c7 -19 22 -66 34 -104 43 -134 140 -294
232 -382 123 -118 232 -178 423 -234 l90 -26 3 -117 c2 -101 0 -118 -14 -124
-9 -3 -81 15 -161 42 -138 45 -226 85 -358 160 -63 36 -97 42 -154 25 -35 -10
-84 -49 -104 -85 -9 -14 -14 -212 -17 -710 -5 -614 -8 -698 -23 -760 -93 -367
-317 -593 -664 -670 -169 -37 -356 -28 -518 26 -232 78 -428 248 -534 464 -70
143 -109 327 -96 454 7 79 41 221 61 259 7 15 14 32 14 38 0 10 28 56 96 160
68 102 204 218 334 284 63 32 181 70 216 70 24 0 24 0 24 -119 l0 -119 -57
-23 c-108 -43 -158 -77 -246 -166 -78 -78 -150 -201 -174 -298 -23 -87 -21
-263 2 -345 40 -140 149 -285 271 -363 61 -38 167 -78 237 -88 374 -54 666
113 781 446 20 59 20 79 24 1203 l3 1143 131 -3 132 -3 12 -35z"/>
</g>
</svg>
