<?xml version="1.0" standalone="no"?>
<!DOCTYPE svg PUBLIC "-//W3C//DTD SVG 20010904//EN"
 "http://www.w3.org/TR/2001/REC-SVG-20010904/DTD/svg10.dtd">
<svg version="1.0" xmlns="http://www.w3.org/2000/svg"
 width="505.000000pt" height="500.000000pt" viewBox="0 0 505.000000 500.000000"
 preserveAspectRatio="xMidYMid meet">

<g transform="translate(0.000000,500.000000) scale(0.100000,-0.100000)"
fill="#000000" stroke="none">
<path d="M1220 4993 c-14 -2 -81 -18 -150 -34 -280 -69 -464 -173 -655 -370
-198 -204 -302 -411 -364 -719 -38 -189 -43 -312 -48 -1195 -7 -1160 6 -1428
83 -1699 128 -447 476 -795 921 -920 205 -58 157 -56 1528 -56 1373 0 1304 -3
1515 56 130 37 272 101 377 170 115 75 300 260 377 377 112 169 197 414 228
657 19 152 19 2329 0 2475 -34 256 -119 506 -224 656 -24 34 -53 76 -64 93
-40 58 -211 218 -304 281 -103 72 -234 132 -377 175 -209 62 -153 60 -1547 59
-699 -1 -1282 -4 -1296 -6z m2270 -453 c299 -16 448 -48 609 -130 149 -75 266
-194 346 -353 126 -249 139 -421 132 -1717 -6 -1024 -8 -1050 -83 -1283 -14
-42 -29 -75 -32 -73 -4 2 -8 -8 -9 -22 0 -14 -7 -31 -15 -36 -7 -6 -14 -18
-16 -26 -7 -31 -59 -98 -138 -176 -123 -122 -295 -202 -513 -239 -65 -11 -425
-34 -538 -35 -10 0 -13 179 -13 860 l0 860 323 0 324 0 11 78 c21 145 82 627
82 650 l0 22 -370 0 -370 0 0 183 c0 201 11 264 57 325 69 92 158 112 489 112
l234 0 0 334 c0 287 -2 335 -15 340 -30 11 -513 28 -635 22 -210 -10 -365 -54
-507 -142 -148 -93 -238 -196 -313 -359 -79 -170 -100 -296 -100 -617 l0 -198
-330 0 -330 0 0 -375 0 -375 330 0 330 0 0 -860 0 -860 -336 0 c-854 0 -1100
53 -1334 289 -180 181 -247 387 -270 821 -15 277 -8 1885 9 2059 24 254 95
449 216 594 177 214 420 307 850 326 242 12 1726 12 1925 1z"/>
</g>
</svg>
