<?xml version="1.0" standalone="no"?>
<!DOCTYPE svg PUBLIC "-//W3C//DTD SVG 20010904//EN"
 "http://www.w3.org/TR/2001/REC-SVG-20010904/DTD/svg10.dtd">
<svg version="1.0" xmlns="http://www.w3.org/2000/svg"
 width="256.000000pt" height="256.000000pt" viewBox="0 0 256.000000 256.000000"
 preserveAspectRatio="xMidYMid meet">

<g transform="translate(0.000000,256.000000) scale(0.100000,-0.100000)"
fill="#000000" stroke="none">
<path d="M390 2131 c-79 -17 -150 -79 -169 -148 -15 -52 -15 -1354 0 -1406 13
-47 60 -102 113 -130 l41 -22 905 0 905 0 41 22 c53 28 100 83 113 130 15 52
15 1354 0 1406 -13 47 -60 102 -113 130 l-41 22 -880 2 c-484 0 -896 -2 -915
-6z m1625 -220 c-9 -7 -350 -250 -632 -450 l-103 -72 -102 72 c-283 200 -624
443 -632 450 -6 5 319 9 734 9 415 0 740 -4 735 -9z m-1013 -649 c141 -100
263 -185 271 -187 11 -5 144 86 625 428 l122 87 0 -475 0 -475 -740 0 -740 0
0 475 0 475 103 -73 c56 -40 218 -155 359 -255z"/>
</g>
</svg>
