<?xml version="1.0" standalone="no"?>
<!DOCTYPE svg PUBLIC "-//W3C//DTD SVG 20010904//EN"
 "http://www.w3.org/TR/2001/REC-SVG-20010904/DTD/svg10.dtd">
<svg version="1.0" xmlns="http://www.w3.org/2000/svg"
 width="505.000000pt" height="500.000000pt" viewBox="0 0 505.000000 500.000000"
 preserveAspectRatio="xMidYMid meet">

<g transform="translate(0.000000,500.000000) scale(0.100000,-0.100000)"
fill="#000000" stroke="none">
<path d="M1220 4993 c-14 -2 -81 -18 -150 -34 -280 -69 -464 -173 -655 -370
-198 -204 -302 -411 -364 -719 -38 -189 -43 -312 -48 -1195 -7 -1160 6 -1428
83 -1699 128 -447 476 -795 921 -920 205 -58 157 -56 1528 -56 1373 0 1304 -3
1515 56 130 37 272 101 377 170 115 75 300 260 377 377 112 169 197 414 228
657 19 152 19 2329 0 2475 -34 256 -119 506 -224 656 -24 34 -53 76 -64 93
-40 58 -211 218 -304 281 -103 72 -234 132 -377 175 -209 62 -153 60 -1547 59
-699 -1 -1282 -4 -1296 -6z m2270 -453 c299 -16 448 -48 609 -130 149 -75 266
-194 346 -353 126 -249 139 -421 132 -1717 -6 -1024 -8 -1050 -83 -1283 -14
-42 -29 -75 -32 -73 -4 2 -8 -8 -9 -22 0 -14 -7 -31 -15 -36 -7 -6 -14 -18
-16 -26 -7 -31 -59 -98 -138 -176 -62 -61 -102 -91 -170 -126 -180 -93 -321
-123 -649 -138 -292 -13 -1655 -13 -1904 1 -410 22 -619 95 -801 278 -180 181
-247 387 -270 821 -15 277 -8 1885 9 2059 24 254 95 449 216 594 177 214 420
307 850 326 242 12 1726 12 1925 1z"/>
<path d="M3763 4140 c-71 -29 -145 -97 -174 -162 -19 -42 -24 -70 -24 -138 0
-76 3 -91 29 -138 34 -60 85 -111 148 -144 35 -19 59 -23 128 -23 108 0 171
26 235 97 116 129 112 312 -10 433 -60 61 -122 87 -210 92 -53 2 -82 -2 -122
-17z"/>
<path d="M2389 3800 c-304 -36 -562 -161 -779 -380 -58 -58 -131 -144 -162
-191 -301 -450 -299 -1019 5 -1468 66 -98 230 -262 332 -333 265 -184 591
-265 901 -224 304 40 548 160 765 376 190 190 302 395 359 660 32 144 32 370
2 512 -58 270 -165 469 -357 666 -216 221 -497 354 -807 382 -126 11 -163 11
-259 0z m238 -481 c150 -17 276 -67 404 -163 138 -103 255 -280 299 -451 30
-117 31 -292 1 -405 -87 -332 -341 -562 -682 -616 -290 -46 -604 81 -774 313
-93 127 -146 255 -164 394 -57 454 254 862 707 928 82 12 102 12 209 0z"/>
</g>
</svg>
