<?xml version="1.0" standalone="no"?>
<!DOCTYPE svg PUBLIC "-//W3C//DTD SVG 20010904//EN"
 "http://www.w3.org/TR/2001/REC-SVG-20010904/DTD/svg10.dtd">
<svg version="1.0" xmlns="http://www.w3.org/2000/svg"
 width="528.000000pt" height="528.000000pt" viewBox="0 0 528.000000 528.000000"
 preserveAspectRatio="xMidYMid meet">

<g transform="translate(0.000000,528.000000) scale(0.100000,-0.100000)"
fill="#000000" stroke="none">
<path d="M2367 5120 c-387 -44 -755 -171 -1064 -366 -205 -130 -494 -391 -647
-584 -173 -219 -302 -456 -385 -704 -186 -561 -159 -1157 77 -1683 108 -242
260 -461 466 -671 l130 -133 3 -62 c2 -34 7 -168 12 -297 6 -183 11 -242 23
-265 9 -16 52 -65 96 -107 139 -136 140 -136 521 32 162 72 302 130 312 130 9
0 59 -11 111 -25 208 -55 332 -69 613 -69 202 -1 286 3 375 17 415 65 778 214
1105 454 148 108 438 395 546 538 260 346 413 730 458 1147 14 125 14 371 0
496 -42 388 -190 778 -413 1087 -141 195 -396 454 -592 598 -321 238 -684 388
-1094 452 -123 19 -532 29 -653 15z m573 -536 c407 -60 751 -211 1039 -457
270 -231 477 -608 567 -1035 35 -168 45 -477 20 -647 -20 -138 -76 -359 -116
-459 -113 -287 -309 -566 -510 -728 -290 -235 -610 -373 -1005 -434 -222 -34
-502 -21 -750 36 -197 45 -186 44 -245 27 -30 -8 -151 -58 -269 -111 -118 -53
-216 -94 -219 -91 -3 2 -8 104 -13 225 -9 263 -11 267 -131 390 -45 47 -94 99
-108 117 -14 18 -56 71 -93 118 -129 165 -242 386 -303 598 -72 252 -78 296
-78 572 0 234 2 258 27 378 91 428 291 793 565 1029 335 288 727 449 1202 492
79 7 311 -4 420 -20z"/>
<path d="M3829 3532 c-30 -15 -215 -150 -412 -300 -198 -149 -361 -272 -363
-272 -2 0 -131 95 -285 211 -175 131 -309 224 -354 246 -128 60 -270 56 -407
-13 -123 -62 -151 -98 -533 -704 -192 -305 -358 -571 -367 -590 -24 -46 -23
-142 1 -195 24 -53 105 -127 164 -150 63 -24 135 -15 197 23 25 16 197 144
384 286 186 141 346 262 356 268 16 10 58 -18 297 -197 153 -115 307 -224 343
-242 182 -91 398 -52 547 100 48 48 140 185 407 610 190 301 355 565 366 587
14 27 20 59 20 102 0 105 -59 187 -170 237 -64 29 -126 27 -191 -7z m-1526
-391 c13 -5 159 -110 324 -234 165 -123 315 -229 333 -235 57 -21 161 -15 211
11 24 12 167 116 317 231 151 114 275 206 277 204 2 -2 -124 -206 -280 -453
-306 -486 -305 -485 -401 -500 -83 -12 -112 4 -429 241 -240 180 -311 228
-354 241 -66 19 -133 13 -192 -18 -24 -12 -163 -112 -309 -223 -290 -221 -297
-226 -285 -205 31 54 552 878 564 893 39 46 159 71 224 47z"/>
</g>
</svg>
