<?xml version="1.0" standalone="no"?>
<!DOCTYPE svg PUBLIC "-//W3C//DTD SVG 20010904//EN"
 "http://www.w3.org/TR/2001/REC-SVG-20010904/DTD/svg10.dtd">
<svg version="1.0" xmlns="http://www.w3.org/2000/svg"
 width="604.000000pt" height="604.000000pt" viewBox="0 0 604.000000 604.000000"
 preserveAspectRatio="xMidYMid meet">

<g transform="translate(0.000000,604.000000) scale(0.100000,-0.100000)"
fill="#000000" stroke="none">
<path d="M2890 5840 c-109 -12 -208 -38 -300 -77 -290 -123 -517 -339 -659
-625 -96 -195 -137 -366 -149 -623 l-7 -150 -225 -6 c-214 -6 -259 -10 -305
-29 -241 -96 -371 -245 -435 -495 -15 -59 -14 -3239 1 -3302 16 -67 49 -153
71 -185 10 -14 18 -29 18 -33 0 -16 91 -116 144 -159 70 -56 127 -86 222 -118
l69 -23 1680 0 c1858 0 1711 -5 1865 68 65 32 101 57 155 111 71 72 105 111
105 122 0 3 8 18 18 32 10 15 24 43 31 62 7 19 16 44 21 55 29 76 30 141 30
1723 -1 1788 4 1663 -72 1818 -37 75 -111 167 -175 216 -52 39 -142 90 -183
102 -14 4 -41 12 -60 18 -19 6 -132 14 -250 17 l-215 6 -7 150 c-12 258 -53
426 -149 623 -145 295 -384 517 -674 629 -75 29 -96 35 -200 62 -57 14 -276
21 -365 11z m325 -440 c44 -11 89 -24 100 -29 127 -57 177 -88 256 -160 206
-186 309 -429 309 -726 l0 -125 -850 0 -850 0 0 125 c0 292 101 534 298 717
84 78 143 115 267 169 112 50 332 63 470 29z m663 -1787 l3 -152 -34 -48 c-51
-73 -62 -109 -62 -203 0 -68 5 -95 24 -135 28 -60 80 -117 141 -153 39 -24 56
-27 130 -27 80 0 90 2 142 34 102 62 158 163 158 286 0 76 -25 151 -70 206
l-31 39 3 142 3 143 30 -3 c76 -9 201 -114 259 -219 15 -26 36 -82 47 -125 20
-77 20 -101 17 -1311 l-3 -1232 -30 -59 c-34 -67 -125 -156 -195 -188 -45 -22
-52 -22 -990 -28 -520 -4 -1093 -6 -1275 -5 -309 1 -334 2 -391 22 -79 28
-143 72 -199 137 -55 63 -80 108 -108 195 l-22 66 0 1255 0 1255 24 43 c50 92
197 196 286 204 l40 3 3 -147 3 -147 -35 -45 c-50 -67 -69 -133 -64 -225 8
-122 60 -206 168 -269 39 -24 56 -27 130 -27 74 0 91 3 130 27 61 36 113 93
141 153 19 40 24 67 24 135 0 94 -11 130 -62 203 l-33 47 0 155 0 155 848 -2
847 -3 3 -152z"/>
</g>
</svg>
