<?xml version="1.0" standalone="no"?>
<!DOCTYPE svg PUBLIC "-//W3C//DTD SVG 20010904//EN"
 "http://www.w3.org/TR/2001/REC-SVG-20010904/DTD/svg10.dtd">
<svg version="1.0" xmlns="http://www.w3.org/2000/svg"
 width="302.000000pt" height="302.000000pt" viewBox="0 0 302.000000 302.000000"
 preserveAspectRatio="xMidYMid meet">

<g transform="translate(0.000000,302.000000) scale(0.100000,-0.100000)"
fill="#000000" stroke="none">
<path d="M1335 2992 c-195 -59 -344 -183 -428 -356 -51 -104 -67 -182 -67
-328 l0 -126 -102 -4 c-87 -3 -111 -8 -155 -31 -66 -34 -115 -83 -151 -150
l-27 -52 0 -850 0 -850 25 -50 c35 -73 105 -138 174 -164 l58 -21 866 2 867 3
54 30 c60 33 110 87 143 154 l23 46 0 850 0 850 -27 52 c-36 67 -85 116 -151
150 -44 23 -68 28 -153 31 l-102 4 -4 152 c-6 173 -21 233 -90 350 -49 83
-152 188 -230 234 -110 65 -188 86 -333 89 -102 2 -143 -1 -190 -15z m308
-212 c134 -42 247 -147 298 -278 18 -45 23 -84 27 -189 l4 -133 -461 0 -461 0
0 108 c0 65 6 131 15 167 66 252 331 401 578 325z m-803 -880 c0 -57 -4 -75
-25 -106 -49 -72 -42 -155 17 -213 64 -62 160 -61 224 3 59 59 66 164 14 211
-17 15 -20 31 -20 97 l0 78 460 0 460 0 0 -78 c0 -66 -3 -82 -20 -97 -52 -47
-45 -152 14 -211 68 -68 165 -66 229 5 57 63 61 133 12 205 -21 31 -25 49 -25
108 l0 70 80 -4 c75 -3 82 -5 112 -36 l33 -32 3 -783 c2 -549 0 -793 -8 -820
-7 -25 -22 -45 -43 -57 -31 -19 -57 -20 -847 -20 -790 0 -816 1 -847 20 -21
12 -36 32 -43 57 -8 27 -10 271 -8 820 l3 781 25 27 c34 37 54 44 133 44 l67
1 0 -70z"/>
</g>
</svg>
