<?xml version="1.0" standalone="no"?>
<!DOCTYPE svg PUBLIC "-//W3C//DTD SVG 20010904//EN"
 "http://www.w3.org/TR/2001/REC-SVG-20010904/DTD/svg10.dtd">
<svg version="1.0" xmlns="http://www.w3.org/2000/svg"
 width="512.000000pt" height="512.000000pt" viewBox="0 0 512.000000 512.000000"
 preserveAspectRatio="xMidYMid meet">

<g transform="translate(0.000000,512.000000) scale(0.100000,-0.100000)"
fill="#000000" stroke="none">
<path d="M1625 5105 c-83 -16 -144 -37 -194 -67 -140 -85 -232 -219 -284 -412
l-22 -81 0 -2005 0 -2005 23 -88 c12 -49 37 -119 55 -155 43 -90 140 -187 229
-230 124 -60 119 -60 1133 -53 l920 7 80 27 c191 67 327 210 390 410 44 138
46 250 43 2257 -3 1717 -5 1880 -20 1936 -68 248 -235 398 -505 453 -98 20
-131 21 -940 20 -648 -1 -854 -4 -908 -14z m1286 -316 c150 -51 170 -210 36
-282 -41 -22 -49 -22 -387 -22 -338 0 -346 0 -387 22 -132 71 -114 230 32 281
43 15 662 16 706 1z m678 -662 c29 -20 50 -44 67 -80 l24 -52 0 -1425 c0 -964
-4 -1437 -11 -1463 -13 -47 -58 -99 -107 -123 -35 -18 -81 -19 -1002 -19
l-965 0 -41 22 c-52 28 -90 72 -104 121 -6 25 -10 512 -10 1462 l0 1425 24 51
c23 49 59 84 107 103 15 6 401 9 1000 8 l975 -2 43 -28z m-948 -3510 c39 -26
79 -97 79 -142 -1 -46 -34 -109 -71 -136 -49 -34 -149 -34 -198 0 -37 27 -70
90 -71 136 0 45 40 116 79 142 47 32 135 32 182 0z"/>
</g>
</svg>
