<?xml version="1.0" standalone="no"?>
<!DOCTYPE svg PUBLIC "-//W3C//DTD SVG 20010904//EN"
 "http://www.w3.org/TR/2001/REC-SVG-20010904/DTD/svg10.dtd">
<svg version="1.0" xmlns="http://www.w3.org/2000/svg"
 width="123.000000pt" height="123.000000pt" viewBox="0 0 123.000000 123.000000"
 preserveAspectRatio="xMidYMid meet">

<g transform="translate(0.000000,123.000000) scale(0.100000,-0.100000)"
fill="#000000" stroke="none">
<path d="M545 1223 c-231 -31 -440 -214 -500 -438 -35 -129 -18 -301 40 -416
l24 -47 -52 -155 c-28 -86 -49 -158 -46 -161 3 -3 76 17 163 45 l158 50 63
-25 c290 -116 623 3 763 272 127 243 86 510 -108 702 -136 136 -318 198 -505
173z m208 -118 c118 -31 232 -113 295 -213 98 -153 99 -378 2 -523 -38 -58
-121 -137 -180 -172 -131 -76 -361 -75 -487 2 l-31 20 -89 -29 c-48 -16 -89
-25 -91 -21 -1 5 10 44 26 88 l29 79 -23 34 c-35 51 -65 147 -71 230 -17 226
140 443 364 505 66 18 187 18 256 0z"/>
<path d="M377 882 c-24 -27 -47 -87 -47 -124 0 -72 98 -224 191 -298 94 -74
235 -126 302 -110 20 4 49 17 66 29 31 22 57 81 47 107 -3 8 -38 30 -78 50
l-73 35 -37 -41 c-36 -41 -38 -41 -73 -30 -37 12 -131 92 -166 141 l-20 29 27
35 c29 39 29 49 -11 138 -25 57 -25 57 -68 57 -29 0 -49 -6 -60 -18z"/>
</g>
</svg>
