<?xml version="1.0" encoding="UTF-8" standalone="no"?>
<svg
   xmlns:dc="http://purl.org/dc/elements/1.1/"
   xmlns:cc="http://creativecommons.org/ns#"
   xmlns:rdf="http://www.w3.org/1999/02/22-rdf-syntax-ns#"
   xmlns:svg="http://www.w3.org/2000/svg"
   xmlns="http://www.w3.org/2000/svg"
   xmlns:sodipodi="http://sodipodi.sourceforge.net/DTD/sodipodi-0.dtd"
   xmlns:inkscape="http://www.inkscape.org/namespaces/inkscape"
   width="200mm"
   height="200mm"
   viewBox="0 0 200 200"
   version="1.1"
   id="svg8"
   inkscape:version="1.0.2-2 (e86c870879, 2021-01-15)"
   sodipodi:docname="Monochrome-Logo Name.svg"
   inkscape:export-filename="D:\Downloads\Depotea\Monochrome-Logo Name.png"
   inkscape:export-xdpi="96"
   inkscape:export-ydpi="96">
  <defs
     id="defs2" />
  <sodipodi:namedview
     id="base"
     pagecolor="#ffffff"
     bordercolor="#666666"
     borderopacity="1.0"
     inkscape:pageopacity="0.0"
     inkscape:pageshadow="2"
     inkscape:zoom="1.4"
     inkscape:cx="400.06556"
     inkscape:cy="529.03773"
     inkscape:document-units="mm"
     inkscape:current-layer="layer1"
     inkscape:document-rotation="0"
     showgrid="false"
     inkscape:window-width="1858"
     inkscape:window-height="1057"
     inkscape:window-x="-8"
     inkscape:window-y="-8"
     inkscape:window-maximized="1" />
  <metadata
     id="metadata5">
    <rdf:RDF>
      <cc:Work
         rdf:about="">
        <dc:format>image/svg+xml</dc:format>
        <dc:type
           rdf:resource="http://purl.org/dc/dcmitype/StillImage" />
        <dc:title />
      </cc:Work>
    </rdf:RDF>
  </metadata>
  <g
     inkscape:label="Layer 1"
     inkscape:groupmode="layer"
     id="layer1">
    <path
       id="path849"
       style="opacity:1;fill:#000000;fill-opacity:1;stroke-width:0.519802;paint-order:fill markers stroke"
       d="M 100.00052,0 A 100.00002,100.00002 0 0 0 0,100.00052 100.00002,100.00002 0 0 0 100.00052,200 100.00002,100.00002 0 0 0 200,100.00052 100.00002,100.00002 0 0 0 100.00052,0 Z m 0,3.9992766 a 96.000495,96.000495 0 0 1 96.0002,96.0012434 96.000495,96.000495 0 0 1 -96.0002,96.0002 A 96.000495,96.000495 0 0 1 3.9992766,100.00052 96.000495,96.000495 0 0 1 100.00052,3.9992766 Z m 24.7025,7.9768514 c -1.17919,-0.0069 -2.21935,0.817377 -2.44917,2.027541 l -6.92174,36.450254 c -0.26266,1.383044 0.63447,2.730632 2.01204,3.020644 l 0.0713,0.01447 c 1.37756,0.290006 2.69805,-0.589726 2.96071,-1.97277 l 6.92175,-36.450255 c 0.26265,-1.383043 -0.63448,-2.7296 -2.01205,-3.019608 l -0.0713,-0.0155 c -0.1722,-0.03625 -0.34308,-0.05378 -0.51154,-0.05477 z M 56.460069,54.266153 c -1.826353,0 -3.296557,1.277731 -3.296557,2.864597 0,1.586865 1.470204,2.864602 3.296557,2.864597 h 83.353401 c 1.82635,0 3.29655,-1.277732 3.29656,-2.864597 0,-1.586866 -1.47021,-2.864597 -3.29656,-2.864597 z m 3.320335,8.906914 c -1.541236,0.08207 -2.646416,1.786792 -2.478108,3.821533 l 7.768103,93.91583 c 0.06818,0.82418 0.337446,1.56974 0.732686,2.16291 a 6.5388237,3.0229913 39.969196 0 0 3.24179,4.26383 6.5388237,3.0229913 39.969196 0 0 5.338567,2.45847 c 0.108408,0.018 0.218038,0.0331 0.331727,0.0331 h 46.843201 c 0.14263,0 0.28036,-0.0152 0.4144,-0.0434 a 3.0229913,6.5388237 50.030804 0 0 5.3706,-2.45951 3.0229913,6.5388237 50.030804 0 0 3.34824,-4.62345 c 0.27313,-0.52193 0.45591,-1.13199 0.5105,-1.79192 l 7.76914,-93.91583 c 0.16829,-2.034741 -0.93687,-3.739469 -2.47811,-3.821533 -1.54125,-0.08205 -2.91743,1.490203 -3.08575,3.524944 l -7.76913,93.915829 c -0.0192,0.23077 -0.0196,0.4565 -0.007,0.67688 a 0.41541635,2.8997369 49.670346 0 1 -1.88803,1.95004 0.41541635,2.8997369 49.670346 0 1 -2.34686,1.57801 H 74.944582 a 2.8997369,0.41541635 40.329654 0 1 -2.299324,-1.56768 2.8997369,0.41541635 40.329654 0 1 -1.93557,-2.04304 l -0.06304,-0.0537 c 0.0048,-0.17728 0.0038,-0.35686 -0.01136,-0.54047 L 62.86615,66.698011 C 62.697847,64.66327 61.321634,63.091019 59.780404,63.173067 Z m 55.309886,0.269721 c -1.18379,0.02588 -2.23606,0.870369 -2.47914,2.07301 l -1.40026,6.928978 c -0.2778,1.374446 0.60924,2.680246 1.98931,2.928671 l 0.0713,0.01343 c 1.38006,0.248419 2.71494,-0.658263 2.99274,-2.032709 l 1.40027,-6.928977 c 0.2778,-1.374447 -0.60925,-2.681284 -1.98931,-2.929703 l -0.0713,-0.0124 c -0.1725,-0.03105 -0.34448,-0.044 -0.5136,-0.0403 z M 69.811662,76.435786 c -1.241229,0 -2.240425,0.999201 -2.240425,2.240424 v 1.24835 c 0,1.241229 0.999196,2.240425 2.240425,2.240425 h 56.650218 c 1.24123,0 2.24042,-0.999196 2.24042,-2.240425 v -1.24835 c 0,-1.241223 -0.99919,-2.240424 -2.24042,-2.240424 z m 29.184383,60.379774 a 4.6994366,4.8906925 0 0 0 -4.667886,4.89111 4.6994366,4.8906925 0 0 0 4.699923,4.89007 4.6994366,4.8906925 0 0 0 4.698888,-4.89007 4.6994366,4.8906925 0 0 0 -4.698888,-4.89111 4.6994366,4.8906925 0 0 0 -0.03204,0 z m -22.48792,1.35583 a 4.6994366,4.8906925 0 0 0 -4.699924,4.8911 4.6994366,4.8906925 0 0 0 4.699924,4.89111 4.6994366,4.8906925 0 0 0 4.698892,-4.89111 4.6994366,4.8906925 0 0 0 -4.698892,-4.8911 z m 42.782955,0.0827 a 4.6994366,4.8906925 0 0 0 -4.66789,4.89111 4.6994366,4.8906925 0 0 0 4.6989,4.89007 4.6994366,4.8906925 0 0 0 4.69992,-4.89007 4.6994366,4.8906925 0 0 0 -4.69992,-4.89111 4.6994366,4.8906925 0 0 0 -0.031,0 z m -30.223986,6.93208 a 4.6994366,4.8906925 0 0 0 -4.667891,4.89007 4.6994366,4.8906925 0 0 0 4.699923,4.89111 4.6994366,4.8906925 0 0 0 4.698892,-4.89111 4.6994366,4.8906925 0 0 0 -4.698892,-4.89007 4.6994366,4.8906925 0 0 0 -0.03203,0 z m 19.066316,0.8846 a 4.6994366,4.8906925 0 0 0 -4.66789,4.8911 4.6994366,4.8906925 0 0 0 4.69993,4.89007 4.6994366,4.8906925 0 0 0 4.69889,-4.89007 4.6994366,4.8906925 0 0 0 -4.69889,-4.8911 4.6994366,4.8906925 0 0 0 -0.032,0 z m 10.22141,6.74813 a 4.6994366,4.8906925 0 0 0 -4.66789,4.89007 4.6994366,4.8906925 0 0 0 4.69992,4.89111 4.6994366,4.8906925 0 0 0 4.6989,-4.89111 4.6994366,4.8906925 0 0 0 -4.6989,-4.89007 4.6994366,4.8906925 0 0 0 -0.032,0 z m -20.444881,0.10644 a 4.6994366,4.8906925 0 0 0 -4.667892,4.89007 4.6994366,4.8906925 0 0 0 4.698892,4.8911 4.6994366,4.8906925 0 0 0 4.699921,-4.8911 4.6994366,4.8906925 0 0 0 -4.699921,-4.89007 4.6994366,4.8906925 0 0 0 -0.031,0 z m -18.811071,0.14984 a 4.6994366,4.8906925 0 0 0 -4.667886,4.89111 4.6994366,4.8906925 0 0 0 4.699924,4.89007 4.6994366,4.8906925 0 0 0 4.698892,-4.89007 4.6994366,4.8906925 0 0 0 -4.698892,-4.89111 4.6994366,4.8906925 0 0 0 -0.03204,0 z"
       inkscape:export-xdpi="96"
       inkscape:export-ydpi="96" />
    <text
       xml:space="preserve"
       style="font-size:30.07614989px;line-height:1.25;font-family:'Arial Rounded MT Bold';-inkscape-font-specification:'Arial Rounded MT Bold, Normal';letter-spacing:0px;word-spacing:0px;stroke-width:0.264583;font-weight:normal;font-style:normal;font-stretch:normal;font-variant:normal;font-variant-ligatures:normal;font-variant-caps:normal;font-variant-numeric:normal;font-variant-east-asian:normal;"
       x="-60.570683"
       y="93.218384"
       id="text1286"><tspan
         sodipodi:role="line"
         id="tspan1284"
         x="-60.570683"
         y="93.218384"
         style="stroke-width:0.264583;-inkscape-font-specification:'Arial Rounded MT Bold, Normal';font-family:'Arial Rounded MT Bold';font-weight:normal;font-style:normal;font-stretch:normal;font-variant:normal;font-size:30.07614989px;font-variant-ligatures:normal;font-variant-caps:normal;font-variant-numeric:normal;font-variant-east-asian:normal;" /></text>
    <path
       id="text855"
       style="font-style:normal;font-variant:normal;font-weight:normal;font-stretch:normal;font-size:31.8736px;line-height:1.25;font-family:'Arial Rounded MT Bold';-inkscape-font-specification:'Arial Rounded MT Bold, Normal';font-variant-ligatures:normal;font-variant-caps:normal;font-variant-numeric:normal;font-variant-east-asian:normal;letter-spacing:0px;word-spacing:0px;stroke-width:1.34476"
       d="M 273.00195 320.24414 L 273.00195 408.40039 L 305.05078 408.40039 C 311.3417 408.40039 316.36775 407.77791 320.12695 406.53516 C 325.15201 404.85142 329.14009 402.50667 332.09375 399.5 C 336.00639 395.53119 339.01719 390.34001 341.12695 383.92578 C 342.85312 378.67413 343.7168 372.42016 343.7168 365.16406 C 343.7168 356.90574 342.79632 349.96988 340.95508 344.35742 C 339.11383 338.70488 336.42944 333.9355 332.90039 330.04688 C 329.37134 326.15825 325.13194 323.45111 320.18359 321.92773 C 316.50111 320.80524 311.1506 320.24414 304.13086 320.24414 L 273.00195 320.24414 z M 401.73828 320.9043 L 401.73828 408.40039 L 442.14258 408.40039 L 449.50195 408.40039 L 460 408.40039 L 460 392.09961 L 449.50195 392.09961 L 449.50195 392.04297 L 418.27539 392.04297 L 418.27539 376.07227 L 453.125 376.07227 L 453.125 359.82227 L 418.30273 359.82227 L 418.30273 353.02344 L 418.27539 353.02344 L 418.27539 337.20117 L 442.14258 337.20117 L 442.14258 337.20508 L 460 337.20508 L 460 320.90625 L 449.50195 320.90625 L 449.50195 320.9043 L 401.73828 320.9043 z M 290.0332 335.1582 L 297.68555 335.1582 C 304.62857 335.1582 309.2897 335.43875 311.66797 336 C 314.85179 336.7216 317.47938 338.1039 319.55078 340.14844 C 321.62218 342.19297 323.23399 345.03941 324.38477 348.6875 C 325.53554 352.33559 326.10938 357.56769 326.10938 364.38281 C 326.10938 371.19793 325.53554 376.58979 324.38477 380.55859 C 323.23399 384.48731 321.73773 387.31328 319.89648 389.03711 C 318.0936 390.76093 315.81069 391.98348 313.04883 392.70508 C 310.93907 393.26632 307.50655 393.54687 302.75 393.54688 L 290.0332 393.54688 L 290.0332 335.1582 z M 273.00195 425.6582 L 273.00195 512.85742 L 290.60938 512.85742 L 290.60938 493.92188 L 293.13477 493.92188 L 302.30078 493.92188 C 310.23655 493.92188 316.29545 493.50657 320.48047 492.67383 C 323.56003 491.99971 326.58187 490.63036 329.54297 488.56836 C 332.54356 486.46668 335.01071 483.59151 336.94531 479.94336 C 338.54829 476.92053 339.47685 473.30284 339.75195 469.10938 C 340.14684 466.0599 340.33114 462.75371 340.28711 459.16992 C 340.25196 456.32091 340.05996 453.64582 339.74414 451.10938 L 339.75586 451.10938 C 339.5433 444.80191 337.88673 439.60009 334.74414 435.5332 C 331.37357 431.13164 327.18974 428.27534 322.19336 426.9668 C 318.94175 426.09441 311.96239 425.6582 301.25586 425.6582 L 273.00195 425.6582 z M 417.35352 426.88477 C 410.74703 426.88477 404.84706 427.87375 399.65625 429.85156 C 394.46544 431.79205 390.06119 434.61029 386.44336 438.30469 C 382.82552 441.99909 380.05384 446.47656 378.12695 451.73828 C 376.23939 457 375.29492 462.7852 375.29492 469.0918 C 375.29492 475.24913 376.20085 480.97636 378.00977 486.27539 C 379.85801 491.57443 382.56993 496.10987 386.14844 499.87891 C 389.72695 503.64794 394.19096 506.57626 399.53906 508.66602 C 404.88717 510.71846 410.94325 511.74414 417.70703 511.74414 C 424.51013 511.74414 430.54695 510.73778 435.81641 508.72266 C 441.08586 506.70753 445.52865 503.79658 449.14648 499.99023 C 452.76432 496.18389 455.47819 491.68708 457.28711 486.5 C 459.09603 481.31292 460 475.54704 460 469.20312 C 460 460.62018 458.34816 453.15642 455.04492 446.8125 C 451.74168 440.43127 446.8652 435.52497 440.41602 432.0918 C 434.00616 428.6213 426.31946 426.88477 417.35352 426.88477 z M 417.35352 440.0957 C 422.26905 440.0957 426.61354 441.23342 430.38867 443.50977 C 434.20313 445.74879 437.13287 449.07119 439.17773 453.47461 C 441.2226 457.87803 442.24414 463.08374 442.24414 469.0918 C 442.24414 475.58498 441.1243 481.05145 438.88281 485.49219 C 436.68065 489.93293 433.69115 493.21667 429.91602 495.34375 C 426.18021 497.47083 422.07086 498.53516 417.58789 498.53516 C 414.08803 498.53516 410.86338 497.91897 407.91406 496.6875 C 405.00406 495.45603 402.40972 493.60942 400.12891 491.14648 C 397.88742 488.64624 396.13728 485.51122 394.87891 481.74219 C 393.65985 477.97316 393.05078 473.75644 393.05078 469.0918 C 393.05078 464.46447 393.65985 460.30377 394.87891 456.60938 C 396.13728 452.87766 397.82766 449.81798 399.95117 447.42969 C 402.11401 445.04139 404.66982 443.23147 407.61914 442 C 410.60779 440.73122 413.85365 440.0957 417.35352 440.0957 z M 290.60938 440.41016 L 299.11523 440.41016 C 305.45984 440.41016 309.68156 440.60747 311.7832 441.00391 C 314.63827 441.51943 316.9976 442.80913 318.86133 444.87109 C 320.16574 446.31431 321.0014 448.03702 321.39062 450.02539 L 321.39258 450.36719 A 15.089286 6.2946425 89.515684 0 1 321.49805 450.67773 C 321.51846 450.82173 321.54441 450.96269 321.56055 451.10938 L 321.63477 451.10938 A 15.089286 6.2946425 89.515684 0 1 322.87695 459.85547 A 15.089286 6.2946425 89.515684 0 1 321.63672 469.10938 L 321.56055 469.10938 C 321.26491 470.70188 320.67361 472.15515 319.77148 473.46094 C 318.46859 475.40399 316.65168 476.83207 314.32227 477.74414 C 311.99287 478.65618 307.37407 479.11133 300.46484 479.11133 L 291.30469 479.11133 L 291.30469 479.12305 L 290.60938 479.12305 L 290.60938 440.41016 z "
       transform="scale(0.26458333)" />
    <path
       id="text1008"
       style="font-style:normal;font-variant:normal;font-weight:normal;font-stretch:normal;font-size:19.7106px;line-height:1.25;font-family:'Arial Rounded MT Bold';-inkscape-font-specification:'Arial Rounded MT Bold, Normal';font-variant-ligatures:normal;font-variant-caps:normal;font-variant-numeric:normal;font-variant-east-asian:normal;letter-spacing:0px;word-spacing:0px;fill:#000000;stroke-width:0.655355"
       d="M 454.61914 650.14258 C 453.05025 650.14258 451.72475 650.43719 450.64453 651.02734 C 449.59003 651.59291 448.72925 652.34293 448.06055 653.27734 C 447.41756 654.21175 446.80053 655.39215 446.20898 656.81836 C 445.64316 658.21997 445.1537 659.42541 444.74219 660.43359 L 430.27539 695.54688 C 429.68384 696.94849 429.25915 698.04321 429.00195 698.83008 C 428.74476 699.61695 428.61719 700.3795 428.61719 701.11719 C 428.61719 702.39585 429.16945 703.5387 430.27539 704.54688 C 431.38133 705.55505 432.65541 706.05859 434.0957 706.05859 C 435.79319 706.05859 437.0139 705.59261 437.75977 704.6582 C 438.50563 703.6992 439.40644 701.86698 440.46094 699.16211 L 443.16016 692.22656 L 466.1543 692.22656 L 468.85547 699.01367 C 469.21554 699.84972 469.63828 700.8212 470.12695 701.92773 C 470.64134 703.00968 471.11746 703.82231 471.55469 704.36328 C 471.99192 704.87967 472.53279 705.285 473.17578 705.58008 C 473.81877 705.89974 474.59005 706.05859 475.49023 706.05859 C 477.0334 706.05859 478.34556 705.54253 479.42578 704.50977 C 480.53172 703.45241 481.08398 702.29705 481.08398 701.04297 C 481.08398 699.83807 480.50503 697.90764 479.34766 695.25195 L 464.57227 660.35938 C 463.87784 658.6135 463.29889 657.22418 462.83594 656.19141 C 462.39871 655.13405 461.84644 654.15005 461.17773 653.24023 C 460.53475 652.33041 459.67201 651.59291 458.5918 651.02734 C 457.5373 650.43719 456.21375 650.14258 454.61914 650.14258 z M 261.0957 650.23242 C 259.38085 650.23242 258.06459 650.64654 257.14844 651.47266 C 256.25577 652.29878 255.81055 653.42463 255.81055 654.85156 C 255.81055 656.22843 256.24411 657.34221 257.11328 658.19336 C 257.98245 659.01948 259.31038 659.43359 261.0957 659.43359 L 272.51172 659.43359 L 272.51172 699.42578 C 272.51172 701.70387 272.9939 703.40472 273.95703 704.53125 C 274.94366 705.65778 276.2113 706.2207 277.76172 706.2207 C 279.28864 706.2207 280.53491 705.66985 281.49805 704.56836 C 282.46118 703.44183 282.94141 701.7289 282.94141 699.42578 L 282.94141 659.43359 L 294.35938 659.43359 C 296.1447 659.43359 297.48234 659.01948 298.375 658.19336 C 299.26766 657.34221 299.71484 656.22843 299.71484 654.85156 C 299.71484 653.4747 299.26766 652.36092 298.375 651.50977 C 297.50583 650.65861 296.16819 650.23242 294.35938 650.23242 L 261.0957 650.23242 z M 354.35742 650.82812 C 352.9995 650.82812 351.87982 651.06387 350.99609 651.53516 C 350.13392 651.98163 349.49742 652.71349 349.08789 653.73047 C 348.67836 654.72264 348.47461 656.01213 348.47461 657.59961 L 348.47461 698.60156 C 348.47461 700.98278 348.92675 702.70685 349.83203 703.77344 C 350.75887 704.84002 352.26665 705.37305 354.35742 705.37305 L 380.44922 705.37305 C 381.95802 705.37305 383.08935 704.97538 383.84375 704.18164 C 384.61971 703.3631 385.00781 702.30936 385.00781 701.01953 C 385.00781 699.6801 384.61971 698.61405 383.84375 697.82031 C 383.08935 697.00177 381.95802 696.5918 380.44922 696.5918 L 358.07617 696.5918 L 358.07617 681.07617 L 377.99219 681.07617 C 379.47944 681.07617 380.57972 680.69276 381.29102 679.92383 C 382.00231 679.13009 382.35742 678.11326 382.35742 676.87305 C 382.35742 675.63283 381.99066 674.64061 381.25781 673.89648 C 380.54652 673.12755 379.45788 672.74219 377.99219 672.74219 L 358.07617 672.74219 L 358.07617 659.34766 L 379.70703 659.34766 C 381.23739 659.34766 382.36872 658.96425 383.10156 658.19531 C 383.85596 657.40157 384.23242 656.36014 384.23242 655.07031 C 384.23242 653.80529 383.85596 652.78846 383.10156 652.01953 C 382.36872 651.22579 381.23739 650.82812 379.70703 650.82812 L 354.35742 650.82812 z M 454.54102 661.6875 L 463.06836 684.00195 L 446.16992 684.00195 L 454.54102 661.6875 z "
       transform="scale(0.26458333)" />
  </g>
</svg>
